<?xml version="1.0"?>
<svg xmlns="http://www.w3.org/2000/svg" xmlns:xlink="http://www.w3.org/1999/xlink" version="1.1" viewBox="0 0 252 252" width="48px" height="48px"><g fill="none" fill-rule="nonzero" stroke="none" stroke-width="none" stroke-linecap="butt" stroke-linejoin="miter" stroke-miterlimit="10" stroke-dasharray="" stroke-dashoffset="0" font-family="none" font-weight="none" font-size="none" text-anchor="none" style="mix-blend-mode: normal"><path d="M0,252v-252h252v252z" fill="none" stroke="none" stroke-width="1"/><g id="Layer_1"><path d="M220.5,90.99825c0,107.69325 -94.5,140.00175 -94.5,140.00175c0,0 -94.5,-32.3085 -94.5,-140.00175c0,-12.97275 0.84525,-24.20775 1.8585,-33.012c1.49625,-13.01475 10.647,-23.646 22.995,-27.0165c16.71075,-4.557 42.29925,-9.96975 69.6465,-9.96975c27.34725,0 52.93575,5.41275 69.64125,9.96975c12.348,3.3705 21.49875,14.00175 22.995,27.0165c1.0185,8.80425 1.86375,20.03925 1.86375,33.012z" fill="#ffffff" stroke="none" stroke-width="1"/><path d="M126,36.75c25.62,0 49.7595,5.11875 65.499,9.41325c6.2265,1.701 10.7415,7.0455 11.4975,13.62375c1.16025,10.12725 1.7535,20.62725 1.7535,31.21125c0,81.96825 -60.32775,114.891 -78.70275,123.018c-18.12825,-8.148 -78.79725,-41.517 -78.79725,-123.018c0,-10.584 0.59325,-21.084 1.75875,-31.21125c0.756,-6.57825 5.271,-11.92275 11.4975,-13.62375c15.73425,-4.2945 39.87375,-9.41325 65.49375,-9.41325M126,21c-27.34725,0 -52.93575,5.41275 -69.64125,9.96975c-12.348,3.3705 -21.49875,14.00175 -22.995,27.0165c-1.0185,8.80425 -1.86375,20.03925 -1.86375,33.012c0,107.69325 94.5,140.00175 94.5,140.00175c0,0 94.5,-32.3085 94.5,-140.00175c0,-12.97275 -0.84525,-24.20775 -1.8585,-33.012c-1.49625,-13.01475 -10.647,-23.646 -22.995,-27.0165c-16.71075,-4.557 -42.29925,-9.96975 -69.6465,-9.96975z" fill="#666666" stroke="none" stroke-width="1"/><path d="M126,189v-42" fill="none" stroke="#666666" stroke-width="10.5"/><path d="M126,52.5c0,0 -31.5,26.25 -31.5,68.25c0,27.2265 17.28825,44.6985 26.25,52.5l5.25,-15.75l5.25,15.75c8.96175,-7.8015 26.25,-25.2735 26.25,-52.5c0,-42 -31.5,-68.25 -31.5,-68.25z" fill="#666666" stroke="none" stroke-width="1"/><path d="M126,52.5c0,0 -31.5,26.25 -31.5,68.25c0,27.2265 17.28825,44.6985 26.25,52.5l5.25,-15.75z" fill="#666666" stroke="none" stroke-width="1"/></g></g></svg>
